<?xml version="1.0" encoding="UTF-8" ?>
<!DOCTYPE svg PUBLIC "-//W3C//DTD SVG 1.1//EN" "http://www.w3.org/Graphics/SVG/1.1/DTD/svg11.dtd">
<svg width="1280pt" height="720pt" viewBox="0 0 1280 720" version="1.1" xmlns="http://www.w3.org/2000/svg">
<g id="#ffffffff">
<path fill="#ffffff" opacity="1.00" d=" M 0.00 0.00 L 1280.00 0.00 L 1280.00 720.00 L 0.00 720.00 L 0.00 0.00 M 1194.27 43.14 C 1191.05 46.05 1185.85 45.12 1181.92 46.80 C 1099.28 64.66 1016.77 83.32 934.08 100.91 C 928.75 93.27 914.95 92.73 910.50 101.57 C 907.73 106.65 909.38 113.11 913.57 116.93 C 867.54 188.38 821.65 259.92 775.67 331.40 C 773.95 332.52 771.90 332.25 769.99 332.01 C 734.69 328.43 699.44 324.27 664.14 320.74 C 661.14 318.22 660.64 313.08 656.40 311.54 C 647.81 306.46 636.96 315.45 638.76 324.88 C 595.51 344.24 552.20 363.48 508.96 382.86 C 466.35 335.28 422.49 288.68 379.97 241.02 C 384.76 233.55 380.28 222.19 371.00 221.56 C 360.19 220.34 353.38 234.76 360.57 242.65 C 325.80 295.92 290.92 349.14 256.38 402.55 C 204.84 386.23 153.65 368.49 102.25 351.62 C 101.81 345.17 97.11 338.43 90.02 338.87 C 80.78 338.02 74.33 349.79 79.81 357.23 C 83.37 363.29 92.53 364.44 97.60 359.63 C 99.03 358.27 100.80 356.90 102.81 358.12 C 148.82 373.49 194.87 388.75 240.89 404.09 C 244.73 405.47 248.80 406.26 252.34 408.35 C 199.96 489.25 146.91 569.72 94.59 650.66 C 86.01 647.82 76.23 656.00 79.02 665.04 C 80.32 674.28 93.61 677.13 99.35 670.37 C 103.65 665.90 103.05 658.66 99.45 653.96 C 152.42 572.63 205.78 491.52 258.33 409.95 C 292.49 421.25 326.65 432.57 360.74 444.07 C 360.86 449.01 363.16 453.96 367.38 456.69 C 373.14 460.29 382.03 458.00 384.57 451.48 C 385.73 449.25 385.10 446.56 386.11 444.31 C 426.66 426.16 467.22 408.01 507.82 389.97 C 550.34 437.13 593.56 483.73 636.20 530.80 C 636.99 533.01 635.05 535.56 635.46 537.99 C 634.80 546.21 644.17 552.89 651.77 549.62 C 660.54 546.23 661.76 534.19 657.16 527.05 C 697.01 464.71 737.11 402.50 777.16 340.29 L 777.40 340.55 C 779.09 338.14 782.47 339.88 784.91 339.67 C 828.17 344.58 871.57 348.78 914.77 354.04 C 916.07 357.97 917.88 362.16 921.78 364.15 C 928.95 368.48 939.67 362.47 939.30 353.98 C 939.60 352.36 938.53 350.06 939.99 348.92 C 1021.93 294.92 1103.72 240.67 1185.64 186.66 C 1187.39 185.44 1189.67 183.14 1191.68 185.27 C 1199.30 190.75 1210.91 183.28 1209.65 174.13 C 1209.57 164.40 1195.95 159.38 1189.45 166.42 C 1185.63 169.77 1185.88 174.97 1185.58 179.51 C 1102.80 234.07 1020.15 288.84 937.39 343.43 C 935.01 344.50 933.28 341.34 931.02 340.92 C 925.07 338.06 918.13 342.04 915.50 347.62 C 870.83 343.26 826.22 337.95 781.55 333.40 C 827.53 262.10 873.18 190.57 919.32 119.37 C 926.84 120.54 935.20 115.63 935.61 107.53 C 942.05 105.09 949.03 104.32 955.70 102.64 C 1035.47 85.16 1115.15 67.52 1194.90 50.06 C 1197.31 51.51 1198.67 54.58 1201.57 55.46 C 1207.73 58.25 1216.20 54.75 1217.75 47.95 C 1219.54 42.02 1216.15 34.64 1209.91 33.14 C 1202.96 30.71 1195.15 35.93 1194.27 43.14 Z" />
<path fill="#ffffff" opacity="1.00" d=" M 364.95 246.99 C 367.80 245.30 371.93 246.47 375.21 245.37 C 418.19 291.70 460.55 338.66 503.30 385.23 C 463.36 403.07 423.55 421.34 383.35 438.53 C 379.85 433.63 373.43 431.52 367.78 433.82 C 365.26 434.90 363.53 438.86 360.42 437.51 C 327.57 426.65 294.76 415.65 261.92 404.78 C 296.39 352.27 330.52 299.53 364.95 246.99 Z" />
<path fill="#ffffff" opacity="1.00" d=" M 653.45 334.50 C 657.79 333.66 660.42 329.91 662.64 326.44 C 698.84 330.39 735.08 334.14 771.24 338.33 C 731.37 400.09 691.91 462.13 651.85 523.76 C 647.73 523.24 643.70 523.92 640.10 525.99 C 597.82 479.95 555.70 433.72 513.55 387.55 C 555.93 368.40 598.39 349.28 641.03 330.74 C 644.77 332.89 648.87 336.11 653.45 334.50 Z" />
</g>
<g id="#ed1e24ff">
<path fill="#ed1e24" opacity="1.00" d=" M 1194.27 43.14 C 1195.15 35.93 1202.96 30.71 1209.91 33.14 C 1216.15 34.64 1219.54 42.02 1217.75 47.95 C 1216.20 54.75 1207.73 58.25 1201.57 55.46 C 1198.67 54.58 1197.31 51.51 1194.90 50.06 C 1115.15 67.52 1035.47 85.16 955.70 102.64 C 949.03 104.32 942.05 105.09 935.61 107.53 C 935.20 115.63 926.84 120.54 919.32 119.37 C 873.18 190.57 827.53 262.10 781.55 333.40 C 779.54 333.04 776.63 333.71 775.67 331.40 C 821.65 259.92 867.54 188.38 913.57 116.93 C 909.38 113.11 907.73 106.65 910.50 101.57 C 914.95 92.73 928.75 93.27 934.08 100.91 C 1016.77 83.32 1099.28 64.66 1181.92 46.80 C 1185.85 45.12 1191.05 46.05 1194.27 43.14 Z" />
<path fill="#ed1e24" opacity="1.00" d=" M 360.57 242.65 C 353.38 234.76 360.19 220.34 371.00 221.56 C 380.28 222.19 384.76 233.55 379.97 241.02 C 422.49 288.68 466.35 335.28 508.96 382.86 C 507.09 383.70 505.18 384.43 503.30 385.23 C 460.55 338.66 418.19 291.70 375.21 245.37 C 371.93 246.47 367.80 245.30 364.95 246.99 C 330.52 299.53 296.39 352.27 261.92 404.78 C 260.01 404.19 258.20 403.35 256.38 402.55 C 290.92 349.14 325.80 295.92 360.57 242.65 Z" />
<path fill="#ed1e24" opacity="1.00" d=" M 771.24 338.33 C 773.37 338.46 775.89 338.14 777.16 340.29 C 737.11 402.50 697.01 464.71 657.16 527.05 C 661.76 534.19 660.54 546.23 651.77 549.62 C 644.17 552.89 634.80 546.21 635.46 537.99 C 635.05 535.56 636.99 533.01 636.20 530.80 C 593.56 483.73 550.34 437.13 507.82 389.97 C 509.71 389.13 511.64 388.39 513.55 387.55 C 555.70 433.72 597.82 479.95 640.10 525.99 C 643.70 523.92 647.73 523.24 651.85 523.76 C 691.91 462.13 731.37 400.09 771.24 338.33 Z" />
<path fill="#ed1e24" opacity="1.00" d=" M 252.34 408.35 C 254.35 408.82 256.39 409.23 258.33 409.95 C 205.78 491.52 152.42 572.63 99.45 653.96 C 103.05 658.66 103.65 665.90 99.35 670.37 C 93.61 677.13 80.32 674.28 79.02 665.04 C 76.23 656.00 86.01 647.82 94.59 650.66 C 146.91 569.72 199.96 489.25 252.34 408.35 Z" />
</g>
<g id="#a7a6a6ff">
<path fill="#a7a6a6" opacity="1.00" d=" M 1189.45 166.42 C 1195.95 159.38 1209.57 164.40 1209.65 174.13 C 1210.91 183.28 1199.30 190.75 1191.68 185.27 C 1189.67 183.14 1187.39 185.44 1185.64 186.66 C 1103.72 240.67 1021.93 294.92 939.99 348.92 C 938.53 350.06 939.60 352.36 939.30 353.98 C 939.67 362.47 928.95 368.48 921.78 364.15 C 917.88 362.16 916.07 357.97 914.77 354.04 C 871.57 348.78 828.17 344.58 784.91 339.67 C 782.47 339.88 779.09 338.14 777.40 340.55 L 777.16 340.29 C 775.89 338.14 773.37 338.46 771.24 338.33 C 735.08 334.14 698.84 330.39 662.64 326.44 C 660.42 329.91 657.79 333.66 653.45 334.50 C 648.87 336.11 644.77 332.89 641.03 330.74 C 598.39 349.28 555.93 368.40 513.55 387.55 C 511.64 388.39 509.71 389.13 507.82 389.97 C 467.22 408.01 426.66 426.16 386.11 444.31 C 385.10 446.56 385.73 449.25 384.57 451.48 C 382.03 458.00 373.14 460.29 367.38 456.69 C 363.16 453.96 360.86 449.01 360.74 444.07 C 326.65 432.57 292.49 421.25 258.33 409.95 C 256.39 409.23 254.35 408.82 252.34 408.35 C 248.80 406.26 244.73 405.47 240.89 404.09 C 194.87 388.75 148.82 373.49 102.81 358.12 C 100.80 356.90 99.03 358.27 97.60 359.63 C 92.53 364.44 83.37 363.29 79.81 357.23 C 74.33 349.79 80.78 338.02 90.02 338.87 C 97.11 338.43 101.81 345.17 102.25 351.62 C 153.65 368.49 204.84 386.23 256.38 402.55 C 258.20 403.35 260.01 404.19 261.92 404.78 C 294.76 415.65 327.57 426.65 360.42 437.51 C 363.53 438.86 365.26 434.90 367.78 433.82 C 373.43 431.52 379.85 433.63 383.35 438.53 C 423.55 421.34 463.36 403.07 503.30 385.23 C 505.18 384.43 507.09 383.70 508.96 382.86 C 552.20 363.48 595.51 344.24 638.76 324.88 C 636.96 315.45 647.81 306.46 656.40 311.54 C 660.64 313.08 661.14 318.22 664.14 320.74 C 699.44 324.27 734.69 328.43 769.99 332.01 C 771.90 332.25 773.95 332.52 775.67 331.40 C 776.63 333.71 779.54 333.04 781.55 333.40 C 826.22 337.95 870.83 343.26 915.50 347.62 C 918.13 342.04 925.07 338.06 931.02 340.92 C 933.28 341.34 935.01 344.50 937.39 343.43 C 1020.15 288.84 1102.80 234.07 1185.58 179.51 C 1185.88 174.97 1185.63 169.77 1189.45 166.42 Z" />
</g>
</svg>
